<mxfile host="app.diagrams.net" agent="Mozilla/5.0 (Windows NT 10.0; Win64; x64; rv:142.0) Gecko/20100101 Firefox/142.0" version="28.0.4">
  <diagram name="Seite-1" id="2qEJkPRnKb7TSoBBrgCi">
    <mxGraphModel dx="1426" dy="1956" grid="1" gridSize="10" guides="1" tooltips="1" connect="1" arrows="1" fold="1" page="1" pageScale="1" pageWidth="827" pageHeight="1169" math="0" shadow="0">
      <root>
        <mxCell id="0" />
        <mxCell id="1" parent="0" />
        <mxCell id="szkpdyQdS_sieyauGWx--7" value="&lt;div&gt;User&lt;/div&gt;" style="shape=umlActor;verticalLabelPosition=bottom;verticalAlign=top;html=1;outlineConnect=0;" vertex="1" parent="1">
          <mxGeometry x="150" y="190" width="30" height="60" as="geometry" />
        </mxCell>
        <mxCell id="szkpdyQdS_sieyauGWx--8" value="&lt;div&gt;Prometheus&lt;/div&gt;" style="shape=umlActor;verticalLabelPosition=bottom;verticalAlign=top;html=1;outlineConnect=0;" vertex="1" parent="1">
          <mxGeometry x="820" y="190" width="30" height="60" as="geometry" />
        </mxCell>
        <mxCell id="szkpdyQdS_sieyauGWx--10" value="" style="rounded=1;whiteSpace=wrap;html=1;" vertex="1" parent="1">
          <mxGeometry x="220" y="-40" width="560" height="620" as="geometry" />
        </mxCell>
        <mxCell id="szkpdyQdS_sieyauGWx--15" style="rounded=0;orthogonalLoop=1;jettySize=auto;html=1;endArrow=none;endFill=0;entryX=0.5;entryY=0.5;entryDx=0;entryDy=0;entryPerimeter=0;" edge="1" parent="1" source="szkpdyQdS_sieyauGWx--11" target="szkpdyQdS_sieyauGWx--7">
          <mxGeometry relative="1" as="geometry">
            <mxPoint x="170" y="220" as="targetPoint" />
          </mxGeometry>
        </mxCell>
        <mxCell id="szkpdyQdS_sieyauGWx--11" value="Regestrieren" style="ellipse;whiteSpace=wrap;html=1;" vertex="1" parent="1">
          <mxGeometry x="260" y="10" width="140" height="70" as="geometry" />
        </mxCell>
        <mxCell id="szkpdyQdS_sieyauGWx--24" style="rounded=0;orthogonalLoop=1;jettySize=auto;html=1;endArrow=none;endFill=0;" edge="1" parent="1" source="szkpdyQdS_sieyauGWx--12" target="szkpdyQdS_sieyauGWx--13">
          <mxGeometry relative="1" as="geometry" />
        </mxCell>
        <mxCell id="szkpdyQdS_sieyauGWx--12" value="Daten Eingabe" style="ellipse;whiteSpace=wrap;html=1;" vertex="1" parent="1">
          <mxGeometry x="260" y="190" width="140" height="70" as="geometry" />
        </mxCell>
        <mxCell id="szkpdyQdS_sieyauGWx--23" style="rounded=0;orthogonalLoop=1;jettySize=auto;html=1;exitX=1;exitY=0.5;exitDx=0;exitDy=0;endArrow=none;endFill=0;" edge="1" parent="1" source="szkpdyQdS_sieyauGWx--13" target="szkpdyQdS_sieyauGWx--8">
          <mxGeometry relative="1" as="geometry" />
        </mxCell>
        <mxCell id="szkpdyQdS_sieyauGWx--13" value="Daten Verarbeitung" style="ellipse;whiteSpace=wrap;html=1;" vertex="1" parent="1">
          <mxGeometry x="450" y="90" width="140" height="70" as="geometry" />
        </mxCell>
        <mxCell id="szkpdyQdS_sieyauGWx--16" style="rounded=0;orthogonalLoop=1;jettySize=auto;html=1;entryX=0.5;entryY=0.5;entryDx=0;entryDy=0;entryPerimeter=0;endArrow=none;endFill=0;" edge="1" parent="1" source="szkpdyQdS_sieyauGWx--12" target="szkpdyQdS_sieyauGWx--7">
          <mxGeometry relative="1" as="geometry" />
        </mxCell>
        <mxCell id="szkpdyQdS_sieyauGWx--18" value="Anmeldung" style="ellipse;whiteSpace=wrap;html=1;" vertex="1" parent="1">
          <mxGeometry x="340" y="320" width="140" height="70" as="geometry" />
        </mxCell>
        <mxCell id="szkpdyQdS_sieyauGWx--22" style="rounded=0;orthogonalLoop=1;jettySize=auto;html=1;endArrow=none;endFill=0;" edge="1" parent="1" source="szkpdyQdS_sieyauGWx--19">
          <mxGeometry relative="1" as="geometry">
            <mxPoint x="170" y="220" as="targetPoint" />
          </mxGeometry>
        </mxCell>
        <mxCell id="szkpdyQdS_sieyauGWx--19" value="Abmeldung" style="ellipse;whiteSpace=wrap;html=1;" vertex="1" parent="1">
          <mxGeometry x="340" y="460" width="140" height="70" as="geometry" />
        </mxCell>
        <mxCell id="szkpdyQdS_sieyauGWx--21" style="rounded=0;orthogonalLoop=1;jettySize=auto;html=1;entryX=0.5;entryY=0.5;entryDx=0;entryDy=0;entryPerimeter=0;endArrow=none;endFill=0;" edge="1" parent="1" source="szkpdyQdS_sieyauGWx--18" target="szkpdyQdS_sieyauGWx--7">
          <mxGeometry relative="1" as="geometry" />
        </mxCell>
      </root>
    </mxGraphModel>
  </diagram>
</mxfile>
